<?xml version="1.0" encoding="utf-8"?>
<!-- Generator: Adobe Illustrator 24.1.2, SVG Export Plug-In . SVG Version: 6.00 Build 0)  -->
<svg version="1.1" xmlns="http://www.w3.org/2000/svg" xmlns:xlink="http://www.w3.org/1999/xlink" x="0px" y="0px"
	 viewBox="0 0 1440 720" style="enable-background:new 0 0 1440 720;" xml:space="preserve">
<style type="text/css">
	.st0{fill:#0000FF;}
	.st1{fill:#FFFFFF;}
	.st2{fill:none;stroke:#000000;stroke-width:27;stroke-miterlimit:10;}
	.st3{fill:#FF0050;}
	.st4{fill:#FF9FCF;stroke:#000000;stroke-width:8;stroke-miterlimit:10;}
	.st5{fill:#FFFF55;stroke:#000000;stroke-width:8;stroke-miterlimit:10;}
	.st6{fill:none;stroke:#000000;stroke-width:8;stroke-miterlimit:10;}
	.st7{fill:none;stroke:#606060;stroke-width:10;stroke-miterlimit:10;}
	.st8{clip-path:url(#SVGID_2_);}
	.st9{clip-path:url(#SVGID_4_);}
	.st10{fill:#00FF00;}
	.st11{fill:none;stroke:#FFFFFF;stroke-width:8;stroke-miterlimit:10;}
	.st12{fill:#EFEFEF;}
	.st13{clip-path:url(#SVGID_6_);fill:none;stroke:#FFFFFF;stroke-width:8;stroke-miterlimit:10;}
	.st14{clip-path:url(#SVGID_8_);fill:none;stroke:#EFEFEF;stroke-width:8;stroke-miterlimit:10;}
	.st15{clip-path:url(#SVGID_10_);fill:none;stroke:#FFFFFF;stroke-width:8;stroke-miterlimit:10;}
	.st16{clip-path:url(#SVGID_12_);fill:none;stroke:#FFFFFF;stroke-width:8;stroke-miterlimit:10;}
	.st17{clip-path:url(#SVGID_14_);}
	.st18{fill:none;}
	.st19{fill:none;stroke:#FFFFFF;stroke-miterlimit:10;}
	.st20{fill:#FF9FCF;}
	.st21{fill:none;stroke:#EFEFEF;stroke-miterlimit:10;}
</style>
<g id="Camada_1">
</g>
<g id="Camada_2">
	<g>
		<polygon class="st4" points="132.86,259.51 75.19,201.84 132.86,144.17 151.67,162.98 112.8,201.84 151.67,240.7 		"/>
	</g>
	<g>
		<polygon class="st4" points="1307.01,259.51 1364.68,201.84 1307.01,144.17 1288.2,162.98 1327.07,201.84 1288.2,240.7 		"/>
	</g>
	<g>
		<polygon class="st4" points="132.86,397.66 75.19,339.99 132.86,282.32 151.67,301.13 112.8,339.99 151.67,378.86 		"/>
	</g>
	<g>
		<polygon class="st4" points="1307.01,397.66 1364.68,339.99 1307.01,282.32 1288.2,301.13 1327.07,339.99 1288.2,378.86 		"/>
	</g>
	<g>
		<g>
			<g>
				<g>
					<ellipse class="st4" cx="658.37" cy="339.99" rx="61.31" ry="43.34"/>
				</g>
			</g>
			<line class="st4" x1="597.12" y1="339.68" x2="719.61" y2="339.68"/>
		</g>
		<g>
			<g>
				<g>
					<ellipse class="st4" cx="780.51" cy="339.99" rx="61.31" ry="43.34"/>
				</g>
			</g>
			<line class="st4" x1="719.27" y1="339.68" x2="841.76" y2="339.68"/>
		</g>
	</g>
	<g>
		<g>
			<g>
				<g>
					
						<ellipse transform="matrix(0.9994 -0.0349 0.0349 0.9994 -16.3685 23.2833)" class="st4" cx="658.42" cy="480.28" rx="61.31" ry="43.34"/>
				</g>
			</g>
			<line class="st4" x1="597.21" y1="482.1" x2="719.62" y2="477.83"/>
		</g>
		<g>
			<g>
				<g>
					
						<ellipse transform="matrix(0.9994 -0.0349 0.0349 0.9994 -16.1451 27.5431)" class="st4" cx="780.5" cy="476.01" rx="61.31" ry="43.34"/>
				</g>
			</g>
			<line class="st4" x1="719.28" y1="477.84" x2="841.69" y2="473.56"/>
		</g>
	</g>
	<g>
		<polygon class="st4" points="132.86,673.97 75.19,616.3 132.86,558.63 151.67,577.43 112.8,616.3 151.67,655.16 		"/>
	</g>
	<g>
		<polygon class="st4" points="1307.01,673.97 1364.68,616.3 1307.01,558.63 1288.2,577.43 1327.07,616.3 1288.2,655.16 		"/>
	</g>
	<g>
		<g>
			<g>
				<path class="st12" d="M26.07,40.94c12.22,0,21.3,10.15,21.3,24.73c0,14.58-8.99,24.63-21.21,24.63
					c-12.22,0-21.39-10.05-21.39-24.63C4.77,51.08,13.84,40.94,26.07,40.94 M26.07,76.5c10.61,0,18.43-4.33,18.43-10.84
					c0-6.7-7.82-11.13-18.43-11.13S7.64,58.96,7.64,65.66C7.64,72.16,15.46,76.5,26.07,76.5 M26.07,38.44
					c-13.79,0-23.8,11.45-23.8,27.23c0,15.72,10.05,27.13,23.89,27.13c13.74,0,23.71-11.41,23.71-27.13
					C49.87,49.89,39.86,38.44,26.07,38.44L26.07,38.44z M26.07,74c-9.23,0-15.93-3.51-15.93-8.34c0-5,6.7-8.63,15.93-8.63
					c9.23,0,15.93,3.63,15.93,8.63C41.99,70.49,35.3,74,26.07,74L26.07,74z"/>
			</g>
			<g>
				<path class="st12" d="M95.27,40.94c12.22,0,21.3,10.15,21.3,24.73c0,14.58-8.99,24.63-21.21,24.63
					c-12.22,0-21.39-10.05-21.39-24.63C73.97,51.08,83.05,40.94,95.27,40.94 M95.27,76.5c10.61,0,18.43-4.33,18.43-10.84
					c0-6.7-7.82-11.13-18.43-11.13c-10.61,0-18.43,4.43-18.43,11.13C76.85,72.16,84.67,76.5,95.27,76.5 M95.27,38.44
					c-13.79,0-23.8,11.45-23.8,27.23c0,15.72,10.05,27.13,23.89,27.13c13.74,0,23.71-11.41,23.71-27.13
					C119.07,49.89,109.06,38.44,95.27,38.44L95.27,38.44z M95.27,74c-9.23,0-15.93-3.51-15.93-8.34c0-5,6.7-8.63,15.93-8.63
					c9.23,0,15.93,3.63,15.93,8.63C111.2,70.49,104.5,74,95.27,74L95.27,74z"/>
			</g>
			<g>
				<path class="st12" d="M129.33,15.62V89.5h-3.59V15.62H129.33 M131.83,13.12h-2.5h-3.59h-2.5v2.5V89.5V92h2.5h3.59h2.5v-2.5
					V15.62V13.12L131.83,13.12z"/>
			</g>
			<g>
				<path class="st12" d="M144.43,15.62l-0.72,37.83h0.72c2.16-7.19,9.26-12.51,16.63-12.51c9.71,0,16.99,10.54,16.99,24.63V89.5
					h-3.59V66.35c0-6.4-6.38-11.23-14.83-11.23c-8.36,0-14.83,4.73-15.19,10.84V89.5h-3.59V15.62H144.43 M146.98,13.12h-2.55h-3.59
					h-2.5v2.5V89.5V92h2.5h3.59h2.5v-2.5V66.04c0.33-4.72,5.88-8.42,12.69-8.42c7.03,0,12.33,3.75,12.33,8.73V89.5V92h2.5h3.59h2.5
					v-2.5V65.56c0-15.47-8.38-27.13-19.49-27.13c-5.59,0-10.96,2.58-14.69,6.69l0.56-29.46L146.98,13.12L146.98,13.12z"/>
			</g>
			<g>
				<path class="st12" d="M204.38,40.94c9.71,0,16.63,8.27,16.63,20.1V89.5h-3.59l0.72-10.64h-0.72
					c-2.16,6.3-9.17,11.43-16.36,11.43c-9.35,0-16.18-6.3-16.18-15.37c0-7.09,6.47-11.82,14.74-11.82h17.8v-1.38
					c-0.36-5.12-5.84-8.96-13.39-8.96c-6.47,0-12.22,3.15-14.02,7.49h-1.62C188.38,49.21,194.85,40.94,204.38,40.94 M200.33,77.68
					c8.63,0,16.36-2.76,17.08-8.67v-2.36h-18.16c-5.39,0-8.99,2.17-8.99,5.32C190.27,75.51,195.3,77.68,200.33,77.68 M204.38,38.44
					c-10.72,0-18.5,9.17-18.5,21.81v2.5h2.5H190h0.15c-4.78,2.46-7.77,6.85-7.77,12.18c0,10.35,7.86,17.87,18.68,17.87
					c5.17,0,10.31-2.29,14.03-5.88l-0.16,2.43L214.74,92h2.67h3.59h2.5v-2.5V61.03C223.51,47.94,215.46,38.44,204.38,38.44
					L204.38,38.44z M192.01,61.92l0.3-0.72c1.43-3.44,6.35-5.94,11.71-5.94c5.34,0,9.54,2.18,10.64,5.34h-15.04
					C196.84,60.6,194.27,61.07,192.01,61.92L192.01,61.92z M200.33,75.18c-4.26,0-7.57-1.73-7.57-3.21c0-1.61,2.79-2.82,6.49-2.82
					h15.6C213.91,73.31,206.98,75.18,200.33,75.18L200.33,75.18z"/>
			</g>
			<g>
				<path class="st12" d="M248.33,40.94c3.95,0,8.09,1.97,9.53,4.73l-0.18,14.19c-1.8-1.97-6.11-3.94-10.43-3.94
					c-6.83,0-12.31,4.73-12.67,11.03V89.5h-3.6V41.72h3.6l-0.72,11.82h0.72C236.02,46.06,242.04,40.94,248.33,40.94 M248.33,38.44
					c-4.32,0-8.35,1.91-11.36,5.07l0.1-1.63l0.16-2.65h-2.66h-3.6h-2.5v2.5V89.5V92h2.5h3.6h2.5v-2.5V67.02
					c0.32-4.91,4.68-8.61,10.17-8.61c3.91,0,7.43,1.87,8.58,3.13l4.27,4.67l0.08-6.33l0.18-14.19l0.01-0.63l-0.29-0.56
					C258.24,40.99,253.3,38.44,248.33,38.44L248.33,38.44z"/>
			</g>
		</g>
		<g>
			<g>
				<path class="st12" d="M1153.7,40.94c12.22,0,21.3,10.15,21.3,24.73c0,14.58-8.99,24.63-21.21,24.63
					c-12.22,0-21.39-10.05-21.39-24.63C1132.4,51.08,1141.48,40.94,1153.7,40.94 M1153.7,76.5c10.61,0,18.43-4.33,18.43-10.84
					c0-6.7-7.82-11.13-18.43-11.13c-10.61,0-18.43,4.43-18.43,11.13C1135.27,72.16,1143.09,76.5,1153.7,76.5 M1153.7,38.44
					c-13.79,0-23.8,11.45-23.8,27.23c0,15.72,10.05,27.13,23.89,27.13c13.74,0,23.71-11.41,23.71-27.13
					C1177.5,49.89,1167.49,38.44,1153.7,38.44L1153.7,38.44z M1153.7,74c-9.23,0-15.93-3.51-15.93-8.34c0-5,6.7-8.63,15.93-8.63
					c9.23,0,15.93,3.63,15.93,8.63C1169.63,70.49,1162.93,74,1153.7,74L1153.7,74z"/>
			</g>
			<g>
				<path class="st12" d="M1222.9,40.94c12.22,0,21.3,10.15,21.3,24.73c0,14.58-8.99,24.63-21.21,24.63
					c-12.22,0-21.39-10.05-21.39-24.63C1201.6,51.08,1210.68,40.94,1222.9,40.94 M1222.9,76.5c10.61,0,18.43-4.33,18.43-10.84
					c0-6.7-7.82-11.13-18.43-11.13c-10.61,0-18.43,4.43-18.43,11.13C1204.48,72.16,1212.3,76.5,1222.9,76.5 M1222.9,38.44
					c-13.79,0-23.8,11.45-23.8,27.23c0,15.72,10.05,27.13,23.89,27.13c13.74,0,23.71-11.41,23.71-27.13
					C1246.71,49.89,1236.69,38.44,1222.9,38.44L1222.9,38.44z M1222.9,74c-9.23,0-15.93-3.51-15.93-8.34c0-5,6.7-8.63,15.93-8.63
					c9.23,0,15.93,3.63,15.93,8.63C1238.83,70.49,1232.13,74,1222.9,74L1222.9,74z"/>
			</g>
			<g>
				<path class="st12" d="M1256.96,15.62l-0.72,37.14h0.72c2.52-6.7,9.17-11.82,16.18-11.82c11.15,0,19.42,10.44,19.42,24.63
					c0,14.19-7.91,24.73-19.06,24.73c-7.19,0-14.2-5.42-16.36-12.71h-0.54l0.36,11.92h-3.6V15.62H1256.96 M1273.5,76.5
					c9.35,0,16.18-4.63,16.18-10.93s-7.19-11.03-16.54-11.03c-9.35,0-16.36,4.93-16.36,11.23S1263.8,76.5,1273.5,76.5
					 M1259.51,13.12h-2.55h-3.6h-2.5v2.5V89.5V92h2.5h3.6h2.58l-0.08-2.58l-0.09-3.06c3.67,3.96,8.8,6.42,14.13,6.42
					c12.49,0,21.56-11.45,21.56-27.23c0-15.47-9.42-27.13-21.92-27.13c-5.33,0-10.51,2.5-14.25,6.53l0.57-29.3L1259.51,13.12
					L1259.51,13.12z M1273.5,74c-8.24,0-14.22-3.46-14.22-8.24c0-4.9,6.09-8.73,13.86-8.73c7.87,0,14.04,3.75,14.04,8.53
					C1287.18,70.37,1281.3,74,1273.5,74L1273.5,74z"/>
			</g>
			<g>
				<path class="st12" d="M1305.5,19.16c2.43,0,4.31,2.07,4.31,4.83c0,2.76-1.89,4.83-4.31,4.83c-2.43,0-4.31-2.07-4.31-4.83
					C1301.18,21.23,1303.07,19.16,1305.5,19.16 M1307.3,41.72v48.57c0,11.62-5.93,20.29-13.84,20.29l0.18-13.79
					c5.75,0,10.07-3.45,10.07-8.08V41.72H1307.3 M1305.5,16.66c-3.82,0-6.81,3.22-6.81,7.33s2.99,7.33,6.81,7.33
					s6.81-3.22,6.81-7.33S1309.32,16.66,1305.5,16.66L1305.5,16.66z M1309.8,39.22h-2.5h-3.59h-2.5v2.5v46.99
					c0,3.18-3.25,5.58-7.57,5.58h-2.47l-0.03,2.47l-0.18,13.79l-0.03,2.53h2.53c9.32,0,16.34-9.8,16.34-22.79V41.72V39.22
					L1309.8,39.22z"/>
			</g>
			<g>
				<path class="st12" d="M1335.61,40.94c10.79,0,18.25,9.46,18.25,22.85c0,1.28,0,2.66-0.09,3.15l-34.61,0.59
					c1.17,6.01,7.64,10.34,16.81,10.34c8.09,0,15.37-3.74,17.53-8.47h1.62c-0.36,12.21-8.18,20.88-18.43,20.88
					c-12.04,0-20.58-10.54-20.58-24.73C1316.1,51.38,1324.1,40.94,1335.61,40.94 M1319.07,64.38l31.91-0.59
					c-1.08-6.3-7.46-10.64-15.37-10.64C1326.44,53.15,1319.79,57.78,1319.07,64.38 M1335.61,38.44c-12.75,0-22,11.41-22,27.13
					c0,15.78,9.71,27.23,23.08,27.23c11.73,0,20.53-9.8,20.93-23.31l0.08-2.57h-1.4c0.06-0.65,0.07-1.59,0.07-3.11
					C1356.35,48.86,1347.82,38.44,1335.61,38.44L1335.61,38.44z M1322.42,61.82c1.97-3.74,6.95-6.17,13.18-6.17
					c5.37,0,9.84,2.24,11.86,5.7L1322.42,61.82L1322.42,61.82z M1322.84,69.97l27.71-0.47c-2.26,3.05-7.86,5.88-14.58,5.88
					C1329.95,75.38,1325.09,73.29,1322.84,69.97L1322.84,69.97z"/>
			</g>
			<g>
				<path class="st12" d="M1370.03,23.99v17.73h15.82V56.3h-15.82v15.86c0,3.35,4.05,5.91,9.35,5.91c2.7,0,5.66-0.39,6.83-0.99
					l-0.18,12.02c-1.26,0.69-4.22,1.18-7.01,1.18c-7.19,0-12.58-7.29-12.58-16.94V56.3h-4.85V41.72h4.85V23.99H1370.03
					 M1372.53,21.49h-2.5h-3.59h-2.5v2.5v15.23h-2.35h-2.5v2.5V56.3v2.5h2.5h2.35v14.54c0,11.08,6.48,19.44,15.08,19.44
					c2.73,0,6.33-0.46,8.21-1.49l1.28-0.7l0.02-1.46l0.18-12.02l0.06-4.13l-3.69,1.86c-0.51,0.26-2.85,0.72-5.7,0.72
					c-4.1,0-6.85-1.76-6.85-3.41V58.8h13.32h2.5v-2.5V41.72v-2.5h-2.5h-13.32V23.99V21.49L1372.53,21.49z"/>
			</g>
			<g>
				<path class="st12" d="M1413.8,40.94c12.22,0,21.3,10.15,21.3,24.73c0,14.58-8.99,24.63-21.21,24.63
					c-12.22,0-21.39-10.05-21.39-24.63C1392.5,51.08,1401.58,40.94,1413.8,40.94 M1413.8,76.5c10.61,0,18.43-4.33,18.43-10.84
					c0-6.7-7.82-11.13-18.43-11.13c-10.61,0-18.43,4.43-18.43,11.13C1395.37,72.16,1403.19,76.5,1413.8,76.5 M1413.8,38.44
					c-13.79,0-23.8,11.45-23.8,27.23c0,15.72,10.05,27.13,23.89,27.13c13.74,0,23.71-11.41,23.71-27.13
					C1437.6,49.89,1427.59,38.44,1413.8,38.44L1413.8,38.44z M1413.8,74c-9.23,0-15.93-3.51-15.93-8.34c0-5,6.7-8.63,15.93-8.63
					c9.23,0,15.93,3.63,15.93,8.63C1429.73,70.49,1423.03,74,1413.8,74L1413.8,74z"/>
			</g>
		</g>
	</g>
	<g>
		<g>
			<path class="st12" d="M1153.7,316.75c12.22,0,21.3,10.15,21.3,24.73c0,14.58-8.99,24.63-21.21,24.63
				c-12.22,0-21.39-10.05-21.39-24.63C1132.4,326.89,1141.48,316.75,1153.7,316.75 M1153.7,352.31c10.61,0,18.43-4.33,18.43-10.84
				c0-6.7-7.82-11.13-18.43-11.13c-10.61,0-18.43,4.43-18.43,11.13C1135.27,347.98,1143.09,352.31,1153.7,352.31 M1153.7,314.25
				c-13.79,0-23.8,11.45-23.8,27.23c0,15.72,10.05,27.13,23.89,27.13c13.74,0,23.71-11.41,23.71-27.13
				C1177.5,325.7,1167.49,314.25,1153.7,314.25L1153.7,314.25z M1153.7,349.81c-9.23,0-15.93-3.51-15.93-8.34
				c0-5,6.7-8.63,15.93-8.63c9.23,0,15.93,3.63,15.93,8.63C1169.63,346.3,1162.93,349.81,1153.7,349.81L1153.7,349.81z"/>
		</g>
		<g>
			<path class="st12" d="M1222.9,316.75c12.22,0,21.3,10.15,21.3,24.73c0,14.58-8.99,24.63-21.21,24.63
				c-12.22,0-21.39-10.05-21.39-24.63C1201.6,326.89,1210.68,316.75,1222.9,316.75 M1222.9,352.31c10.61,0,18.43-4.33,18.43-10.84
				c0-6.7-7.82-11.13-18.43-11.13c-10.61,0-18.43,4.43-18.43,11.13C1204.48,347.98,1212.3,352.31,1222.9,352.31 M1222.9,314.25
				c-13.79,0-23.8,11.45-23.8,27.23c0,15.72,10.05,27.13,23.89,27.13c13.74,0,23.71-11.41,23.71-27.13
				C1246.71,325.7,1236.69,314.25,1222.9,314.25L1222.9,314.25z M1222.9,349.81c-9.23,0-15.93-3.51-15.93-8.34
				c0-5,6.7-8.63,15.93-8.63c9.23,0,15.93,3.63,15.93,8.63C1238.83,346.3,1232.13,349.81,1222.9,349.81L1222.9,349.81z"/>
		</g>
		<g>
			<path class="st12" d="M1256.96,291.43l-0.72,37.14h0.72c2.52-6.7,9.17-11.82,16.18-11.82c11.15,0,19.42,10.44,19.42,24.63
				c0,14.19-7.91,24.73-19.06,24.73c-7.19,0-14.2-5.42-16.36-12.71h-0.54l0.36,11.92h-3.6v-73.88H1256.96 M1273.5,352.31
				c9.35,0,16.18-4.63,16.18-10.93c0-6.3-7.19-11.03-16.54-11.03c-9.35,0-16.36,4.93-16.36,11.23S1263.8,352.31,1273.5,352.31
				 M1259.51,288.93h-2.55h-3.6h-2.5v2.5v73.88v2.5h2.5h3.6h2.58l-0.08-2.58l-0.09-3.06c3.67,3.96,8.8,6.42,14.13,6.42
				c12.49,0,21.56-11.45,21.56-27.23c0-15.46-9.42-27.13-21.92-27.13c-5.33,0-10.51,2.5-14.25,6.53l0.57-29.3L1259.51,288.93
				L1259.51,288.93z M1273.5,349.81c-8.24,0-14.22-3.46-14.22-8.24c0-4.9,6.09-8.73,13.86-8.73c7.87,0,14.04,3.75,14.04,8.53
				C1287.18,346.18,1281.3,349.81,1273.5,349.81L1273.5,349.81z"/>
		</g>
		<g>
			<path class="st12" d="M1305.5,294.98c2.43,0,4.31,2.07,4.31,4.83c0,2.76-1.89,4.83-4.31,4.83c-2.43,0-4.31-2.07-4.31-4.83
				C1301.18,297.04,1303.07,294.98,1305.5,294.98 M1307.3,317.54v48.57c0,11.62-5.93,20.29-13.84,20.29l0.18-13.79
				c5.75,0,10.07-3.45,10.07-8.08v-46.99H1307.3 M1305.5,292.48c-3.82,0-6.81,3.22-6.81,7.33s2.99,7.33,6.81,7.33
				s6.81-3.22,6.81-7.33S1309.32,292.48,1305.5,292.48L1305.5,292.48z M1309.8,315.04h-2.5h-3.59h-2.5v2.5v46.99
				c0,3.18-3.25,5.58-7.57,5.58h-2.47l-0.03,2.47l-0.18,13.79l-0.03,2.53h2.53c9.32,0,16.34-9.8,16.34-22.79v-48.57V315.04
				L1309.8,315.04z"/>
		</g>
		<g>
			<path class="st12" d="M1335.61,316.75c10.79,0,18.25,9.46,18.25,22.85c0,1.28,0,2.66-0.09,3.15l-34.61,0.59
				c1.17,6.01,7.64,10.34,16.81,10.34c8.09,0,15.37-3.74,17.53-8.47h1.62c-0.36,12.21-8.18,20.88-18.43,20.88
				c-12.04,0-20.58-10.54-20.58-24.73C1316.1,327.19,1324.1,316.75,1335.61,316.75 M1319.07,340.19l31.91-0.59
				c-1.08-6.3-7.46-10.64-15.37-10.64C1326.44,328.96,1319.79,333.59,1319.07,340.19 M1335.61,314.25c-12.75,0-22,11.41-22,27.13
				c0,15.78,9.71,27.23,23.08,27.23c11.73,0,20.53-9.8,20.93-23.31l0.08-2.57h-1.4c0.06-0.65,0.07-1.59,0.07-3.11
				C1356.35,324.67,1347.82,314.25,1335.61,314.25L1335.61,314.25z M1322.42,337.63c1.97-3.74,6.95-6.17,13.18-6.17
				c5.37,0,9.84,2.24,11.86,5.7L1322.42,337.63L1322.42,337.63z M1322.84,345.78l27.71-0.47c-2.26,3.05-7.86,5.88-14.58,5.88
				C1329.95,351.19,1325.09,349.11,1322.84,345.78L1322.84,345.78z"/>
		</g>
		<g>
			<path class="st12" d="M1370.03,299.8v17.73h15.82v14.58h-15.82v15.86c0,3.35,4.05,5.91,9.35,5.91c2.7,0,5.66-0.39,6.83-0.98
				l-0.18,12.02c-1.26,0.69-4.22,1.18-7.01,1.18c-7.19,0-12.58-7.29-12.58-16.94v-17.04h-4.85v-14.58h4.85V299.8H1370.03
				 M1372.53,297.3h-2.5h-3.59h-2.5v2.5v15.23h-2.35h-2.5v2.5v14.58v2.5h2.5h2.35v14.54c0,11.08,6.48,19.44,15.08,19.44
				c2.74,0,6.34-0.46,8.21-1.49l1.28-0.7l0.02-1.46l0.18-12.02l0.06-4.13l-3.69,1.86c-0.51,0.26-2.85,0.72-5.7,0.72
				c-4.1,0-6.85-1.76-6.85-3.41v-13.36h13.32h2.5v-2.5v-14.58v-2.5h-2.5h-13.32V299.8V297.3L1372.53,297.3z"/>
		</g>
		<g>
			<path class="st12" d="M1413.8,316.75c12.22,0,21.3,10.15,21.3,24.73c0,14.58-8.99,24.63-21.21,24.63
				c-12.22,0-21.39-10.05-21.39-24.63C1392.5,326.89,1401.58,316.75,1413.8,316.75 M1413.8,352.31c10.61,0,18.43-4.33,18.43-10.84
				c0-6.7-7.82-11.13-18.43-11.13c-10.61,0-18.43,4.43-18.43,11.13C1395.37,347.98,1403.19,352.31,1413.8,352.31 M1413.8,314.25
				c-13.79,0-23.8,11.45-23.8,27.23c0,15.72,10.05,27.13,23.89,27.13c13.74,0,23.71-11.41,23.71-27.13
				C1437.6,325.7,1427.59,314.25,1413.8,314.25L1413.8,314.25z M1413.8,349.81c-9.23,0-15.93-3.51-15.93-8.34
				c0-5,6.7-8.63,15.93-8.63c9.23,0,15.93,3.63,15.93,8.63C1429.73,346.3,1423.03,349.81,1413.8,349.81L1413.8,349.81z"/>
		</g>
	</g>
	<g>
		<g>
			<path class="st12" d="M1153.7,446.77c12.22,0,21.3,10.15,21.3,24.73c0,14.58-8.99,24.63-21.21,24.63
				c-12.22,0-21.39-10.05-21.39-24.63C1132.4,456.92,1141.48,446.77,1153.7,446.77 M1153.7,482.34c10.61,0,18.43-4.33,18.43-10.84
				c0-6.7-7.82-11.13-18.43-11.13c-10.61,0-18.43,4.43-18.43,11.13C1135.27,478,1143.09,482.34,1153.7,482.34 M1153.7,444.27
				c-13.79,0-23.8,11.45-23.8,27.23c0,15.72,10.05,27.13,23.89,27.13c13.74,0,23.71-11.41,23.71-27.13
				C1177.5,455.72,1167.49,444.27,1153.7,444.27L1153.7,444.27z M1153.7,479.84c-9.23,0-15.93-3.51-15.93-8.34
				c0-5,6.7-8.63,15.93-8.63c9.23,0,15.93,3.63,15.93,8.63C1169.63,476.33,1162.93,479.84,1153.7,479.84L1153.7,479.84z"/>
		</g>
		<g>
			<path class="st12" d="M1222.9,446.77c12.22,0,21.3,10.15,21.3,24.73c0,14.58-8.99,24.63-21.21,24.63
				c-12.22,0-21.39-10.05-21.39-24.63C1201.6,456.92,1210.68,446.77,1222.9,446.77 M1222.9,482.34c10.61,0,18.43-4.33,18.43-10.84
				c0-6.7-7.82-11.13-18.43-11.13c-10.61,0-18.43,4.43-18.43,11.13C1204.48,478,1212.3,482.34,1222.9,482.34 M1222.9,444.27
				c-13.79,0-23.8,11.45-23.8,27.23c0,15.72,10.05,27.13,23.89,27.13c13.74,0,23.71-11.41,23.71-27.13
				C1246.71,455.72,1236.69,444.27,1222.9,444.27L1222.9,444.27z M1222.9,479.84c-9.23,0-15.93-3.51-15.93-8.34
				c0-5,6.7-8.63,15.93-8.63c9.23,0,15.93,3.63,15.93,8.63C1238.83,476.33,1232.13,479.84,1222.9,479.84L1222.9,479.84z"/>
		</g>
		<g>
			<path class="st12" d="M1256.96,421.46l-0.72,37.14h0.72c2.52-6.7,9.17-11.82,16.18-11.82c11.15,0,19.42,10.44,19.42,24.63
				c0,14.19-7.91,24.73-19.06,24.73c-7.19,0-14.2-5.42-16.36-12.71h-0.54l0.36,11.92h-3.6v-73.88H1256.96 M1273.5,482.34
				c9.35,0,16.18-4.63,16.18-10.93s-7.19-11.03-16.54-11.03c-9.35,0-16.36,4.93-16.36,11.23S1263.8,482.34,1273.5,482.34
				 M1259.51,418.96h-2.55h-3.6h-2.5v2.5v73.88v2.5h2.5h3.6h2.58l-0.08-2.58l-0.09-3.06c3.67,3.96,8.8,6.42,14.13,6.42
				c12.49,0,21.56-11.45,21.56-27.23c0-15.47-9.42-27.13-21.92-27.13c-5.33,0-10.51,2.5-14.25,6.53l0.57-29.3L1259.51,418.96
				L1259.51,418.96z M1273.5,479.84c-8.24,0-14.22-3.46-14.22-8.24c0-4.9,6.09-8.73,13.86-8.73c7.87,0,14.04,3.75,14.04,8.53
				C1287.18,476.21,1281.3,479.84,1273.5,479.84L1273.5,479.84z"/>
		</g>
		<g>
			<path class="st12" d="M1305.5,425c2.43,0,4.31,2.07,4.31,4.83c0,2.76-1.89,4.83-4.31,4.83c-2.43,0-4.31-2.07-4.31-4.83
				C1301.18,427.07,1303.07,425,1305.5,425 M1307.3,447.56v48.57c0,11.62-5.93,20.29-13.84,20.29l0.18-13.79
				c5.75,0,10.07-3.45,10.07-8.08v-46.99H1307.3 M1305.5,422.5c-3.82,0-6.81,3.22-6.81,7.33s2.99,7.33,6.81,7.33
				s6.81-3.22,6.81-7.33S1309.32,422.5,1305.5,422.5L1305.5,422.5z M1309.8,445.06h-2.5h-3.59h-2.5v2.5v46.99
				c0,3.18-3.25,5.58-7.57,5.58h-2.47l-0.03,2.47l-0.18,13.79l-0.03,2.53h2.53c9.32,0,16.34-9.8,16.34-22.79v-48.57V445.06
				L1309.8,445.06z"/>
		</g>
		<g>
			<path class="st12" d="M1335.61,446.77c10.79,0,18.25,9.46,18.25,22.85c0,1.28,0,2.66-0.09,3.15l-34.61,0.59
				c1.17,6.01,7.64,10.34,16.81,10.34c8.09,0,15.37-3.74,17.53-8.47h1.62c-0.36,12.21-8.18,20.88-18.43,20.88
				c-12.04,0-20.58-10.54-20.58-24.73C1316.1,457.22,1324.1,446.77,1335.61,446.77 M1319.07,470.22l31.91-0.59
				c-1.08-6.3-7.46-10.64-15.37-10.64C1326.44,458.99,1319.79,463.62,1319.07,470.22 M1335.61,444.27c-12.75,0-22,11.41-22,27.13
				c0,15.78,9.71,27.23,23.08,27.23c11.73,0,20.53-9.8,20.93-23.31l0.08-2.57h-1.4c0.06-0.65,0.07-1.59,0.07-3.11
				C1356.35,454.7,1347.82,444.27,1335.61,444.27L1335.61,444.27z M1322.42,467.66c1.97-3.74,6.95-6.17,13.18-6.17
				c5.37,0,9.84,2.24,11.86,5.7L1322.42,467.66L1322.42,467.66z M1322.84,475.81l27.71-0.47c-2.26,3.05-7.86,5.88-14.58,5.88
				C1329.95,481.21,1325.09,479.13,1322.84,475.81L1322.84,475.81z"/>
		</g>
		<g>
			<path class="st12" d="M1370.03,429.83v17.73h15.82v14.58h-15.82V478c0,3.35,4.05,5.91,9.35,5.91c2.7,0,5.66-0.39,6.83-0.99
				l-0.18,12.02c-1.26,0.69-4.22,1.18-7.01,1.18c-7.19,0-12.58-7.29-12.58-16.94v-17.04h-4.85v-14.58h4.85v-17.73H1370.03
				 M1372.53,427.33h-2.5h-3.59h-2.5v2.5v15.23h-2.35h-2.5v2.5v14.58v2.5h2.5h2.35v14.54c0,11.08,6.48,19.44,15.08,19.44
				c2.73,0,6.33-0.46,8.21-1.49l1.28-0.7l0.02-1.46l0.18-12.02l0.06-4.13l-3.69,1.86c-0.51,0.26-2.85,0.72-5.7,0.72
				c-4.1,0-6.85-1.76-6.85-3.41v-13.36h13.32h2.5v-2.5v-14.58v-2.5h-2.5h-13.32v-15.23V427.33L1372.53,427.33z"/>
		</g>
		<g>
			<path class="st12" d="M1413.8,446.77c12.22,0,21.3,10.15,21.3,24.73c0,14.58-8.99,24.63-21.21,24.63
				c-12.22,0-21.39-10.05-21.39-24.63C1392.5,456.92,1401.58,446.77,1413.8,446.77 M1413.8,482.34c10.61,0,18.43-4.33,18.43-10.84
				c0-6.7-7.82-11.13-18.43-11.13c-10.61,0-18.43,4.43-18.43,11.13C1395.37,478,1403.19,482.34,1413.8,482.34 M1413.8,444.27
				c-13.79,0-23.8,11.45-23.8,27.23c0,15.72,10.05,27.13,23.89,27.13c13.74,0,23.71-11.41,23.71-27.13
				C1437.6,455.72,1427.59,444.27,1413.8,444.27L1413.8,444.27z M1413.8,479.84c-9.23,0-15.93-3.51-15.93-8.34
				c0-5,6.7-8.63,15.93-8.63c9.23,0,15.93,3.63,15.93,8.63C1429.73,476.33,1423.03,479.84,1413.8,479.84L1413.8,479.84z"/>
		</g>
	</g>
	<g>
		<g>
			<path class="st12" d="M26.07,592.56c12.22,0,21.3,10.15,21.3,24.73s-8.99,24.63-21.21,24.63c-12.22,0-21.39-10.05-21.39-24.63
				S13.84,592.56,26.07,592.56 M26.07,628.12c10.61,0,18.43-4.33,18.43-10.84c0-6.7-7.82-11.13-18.43-11.13s-18.43,4.43-18.43,11.13
				C7.64,623.79,15.46,628.12,26.07,628.12 M26.07,590.06c-13.79,0-23.8,11.45-23.8,27.23c0,15.72,10.05,27.13,23.89,27.13
				c13.74,0,23.71-11.41,23.71-27.13C49.87,601.51,39.86,590.06,26.07,590.06L26.07,590.06z M26.07,625.62
				c-9.23,0-15.93-3.51-15.93-8.34c0-5,6.7-8.63,15.93-8.63c9.23,0,15.93,3.63,15.93,8.63C41.99,622.12,35.3,625.62,26.07,625.62
				L26.07,625.62z"/>
		</g>
		<g>
			<path class="st12" d="M95.27,592.56c12.22,0,21.3,10.15,21.3,24.73s-8.99,24.63-21.21,24.63c-12.22,0-21.39-10.05-21.39-24.63
				S83.05,592.56,95.27,592.56 M95.27,628.12c10.61,0,18.43-4.33,18.43-10.84c0-6.7-7.82-11.13-18.43-11.13
				c-10.61,0-18.43,4.43-18.43,11.13C76.85,623.79,84.67,628.12,95.27,628.12 M95.27,590.06c-13.79,0-23.8,11.45-23.8,27.23
				c0,15.72,10.05,27.13,23.89,27.13c13.74,0,23.71-11.41,23.71-27.13C119.07,601.51,109.06,590.06,95.27,590.06L95.27,590.06z
				 M95.27,625.62c-9.23,0-15.93-3.51-15.93-8.34c0-5,6.7-8.63,15.93-8.63c9.23,0,15.93,3.63,15.93,8.63
				C111.2,622.12,104.5,625.62,95.27,625.62L95.27,625.62z"/>
		</g>
		<g>
			<path class="st12" d="M129.33,567.24v73.88h-3.59v-73.88H129.33 M131.83,564.74h-2.5h-3.59h-2.5v2.5v73.88v2.5h2.5h3.59h2.5v-2.5
				v-73.88V564.74L131.83,564.74z"/>
		</g>
		<g>
			<path class="st12" d="M144.43,567.24l-0.72,37.83h0.72c2.16-7.19,9.26-12.51,16.63-12.51c9.71,0,16.99,10.54,16.99,24.63v23.94
				h-3.59v-23.15c0-6.4-6.38-11.23-14.83-11.23c-8.36,0-14.83,4.73-15.19,10.84v23.54h-3.59v-73.88H144.43 M146.98,564.74h-2.55
				h-3.59h-2.5v2.5v73.88v2.5h2.5h3.59h2.5v-2.5v-23.46c0.33-4.73,5.88-8.42,12.69-8.42c7.03,0,12.33,3.75,12.33,8.73v23.15v2.5h2.5
				h3.59h2.5v-2.5v-23.94c0-15.46-8.38-27.13-19.49-27.13c-5.59,0-10.96,2.58-14.69,6.69l0.56-29.46L146.98,564.74L146.98,564.74z"
				/>
		</g>
		<g>
			<path class="st12" d="M204.38,592.56c9.71,0,16.63,8.27,16.63,20.1v28.47h-3.59l0.72-10.64h-0.72
				c-2.16,6.3-9.17,11.43-16.36,11.43c-9.35,0-16.18-6.3-16.18-15.37c0-7.09,6.47-11.82,14.74-11.82h17.8v-1.38
				c-0.36-5.12-5.84-8.96-13.39-8.96c-6.47,0-12.22,3.15-14.02,7.49h-1.62C188.38,600.84,194.85,592.56,204.38,592.56 M200.33,629.3
				c8.63,0,16.36-2.76,17.08-8.67v-2.36h-18.16c-5.39,0-8.99,2.17-8.99,5.32C190.27,627.14,195.3,629.3,200.33,629.3 M204.38,590.06
				c-10.72,0-18.5,9.17-18.5,21.81v2.5h2.5H190h0.15c-4.78,2.46-7.77,6.85-7.77,12.18c0,10.35,7.86,17.87,18.68,17.87
				c5.17,0,10.31-2.29,14.03-5.88l-0.16,2.43l-0.18,2.67h2.67h3.59h2.5v-2.5v-28.47C223.51,599.56,215.46,590.06,204.38,590.06
				L204.38,590.06z M192.01,613.54l0.3-0.72c1.43-3.44,6.35-5.94,11.71-5.94c5.34,0,9.54,2.18,10.64,5.34h-15.04
				C196.84,612.22,194.27,612.69,192.01,613.54L192.01,613.54z M200.33,626.8c-4.26,0-7.57-1.73-7.57-3.21
				c0-1.61,2.79-2.82,6.49-2.82h15.6C213.91,624.93,206.98,626.8,200.33,626.8L200.33,626.8z"/>
		</g>
		<g>
			<path class="st12" d="M248.33,592.56c3.95,0,8.09,1.97,9.53,4.73l-0.18,14.19c-1.8-1.97-6.11-3.94-10.43-3.94
				c-6.83,0-12.31,4.73-12.67,11.03v22.56h-3.6v-47.78h3.6l-0.72,11.82h0.72C236.02,597.68,242.04,592.56,248.33,592.56
				 M248.33,590.06c-4.32,0-8.35,1.91-11.36,5.07l0.1-1.63l0.16-2.65h-2.66h-3.6h-2.5v2.5v47.78v2.5h2.5h3.6h2.5v-2.5v-22.48
				c0.32-4.91,4.68-8.61,10.17-8.61c3.91,0,7.43,1.87,8.58,3.13l4.27,4.67l0.08-6.33l0.18-14.19l0.01-0.63l-0.29-0.56
				C258.24,592.61,253.3,590.06,248.33,590.06L248.33,590.06z"/>
		</g>
	</g>
	<g>
		<g>
			<path class="st12" d="M26.07,462.53c12.22,0,21.3,10.15,21.3,24.73c0,14.58-8.99,24.63-21.21,24.63
				c-12.22,0-21.39-10.05-21.39-24.63C4.77,472.68,13.84,462.53,26.07,462.53 M26.07,498.1c10.61,0,18.43-4.33,18.43-10.84
				c0-6.7-7.82-11.13-18.43-11.13s-18.43,4.43-18.43,11.13C7.64,493.76,15.46,498.1,26.07,498.1 M26.07,460.03
				c-13.79,0-23.8,11.45-23.8,27.23c0,15.72,10.05,27.13,23.89,27.13c13.74,0,23.71-11.41,23.71-27.13
				C49.87,471.48,39.86,460.03,26.07,460.03L26.07,460.03z M26.07,495.6c-9.23,0-15.93-3.51-15.93-8.34c0-5,6.7-8.63,15.93-8.63
				c9.23,0,15.93,3.63,15.93,8.63C41.99,492.09,35.3,495.6,26.07,495.6L26.07,495.6z"/>
		</g>
		<g>
			<path class="st12" d="M95.27,462.53c12.22,0,21.3,10.15,21.3,24.73c0,14.58-8.99,24.63-21.21,24.63
				c-12.22,0-21.39-10.05-21.39-24.63C73.97,472.68,83.05,462.53,95.27,462.53 M95.27,498.1c10.61,0,18.43-4.33,18.43-10.84
				c0-6.7-7.82-11.13-18.43-11.13c-10.61,0-18.43,4.43-18.43,11.13C76.85,493.76,84.67,498.1,95.27,498.1 M95.27,460.03
				c-13.79,0-23.8,11.45-23.8,27.23c0,15.72,10.05,27.13,23.89,27.13c13.74,0,23.71-11.41,23.71-27.13
				C119.07,471.48,109.06,460.03,95.27,460.03L95.27,460.03z M95.27,495.6c-9.23,0-15.93-3.51-15.93-8.34c0-5,6.7-8.63,15.93-8.63
				c9.23,0,15.93,3.63,15.93,8.63C111.2,492.09,104.5,495.6,95.27,495.6L95.27,495.6z"/>
		</g>
		<g>
			<path class="st12" d="M129.33,437.22v73.88h-3.59v-73.88H129.33 M131.83,434.72h-2.5h-3.59h-2.5v2.5v73.88v2.5h2.5h3.59h2.5v-2.5
				v-73.88V434.72L131.83,434.72z"/>
		</g>
		<g>
			<path class="st12" d="M144.43,437.22l-0.72,37.83h0.72c2.16-7.19,9.26-12.51,16.63-12.51c9.71,0,16.99,10.54,16.99,24.63v23.94
				h-3.59v-23.15c0-6.4-6.38-11.23-14.83-11.23c-8.36,0-14.83,4.73-15.19,10.84v23.54h-3.59v-73.88H144.43 M146.98,434.72h-2.55
				h-3.59h-2.5v2.5v73.88v2.5h2.5h3.59h2.5v-2.5v-23.46c0.33-4.72,5.88-8.42,12.69-8.42c7.03,0,12.33,3.75,12.33,8.73v23.15v2.5h2.5
				h3.59h2.5v-2.5v-23.94c0-15.47-8.38-27.13-19.49-27.13c-5.59,0-10.96,2.58-14.69,6.69l0.56-29.46L146.98,434.72L146.98,434.72z"
				/>
		</g>
		<g>
			<path class="st12" d="M204.38,462.53c9.71,0,16.63,8.27,16.63,20.1v28.47h-3.59l0.72-10.64h-0.72
				c-2.16,6.3-9.17,11.43-16.36,11.43c-9.35,0-16.18-6.3-16.18-15.37c0-7.09,6.47-11.82,14.74-11.82h17.8v-1.38
				c-0.36-5.12-5.84-8.96-13.39-8.96c-6.47,0-12.22,3.15-14.02,7.49h-1.62C188.38,470.81,194.85,462.53,204.38,462.53
				 M200.33,499.28c8.63,0,16.36-2.76,17.08-8.67v-2.36h-18.16c-5.39,0-8.99,2.17-8.99,5.32
				C190.27,497.11,195.3,499.28,200.33,499.28 M204.38,460.03c-10.72,0-18.5,9.17-18.5,21.81v2.5h2.5H190h0.15
				c-4.78,2.46-7.77,6.85-7.77,12.18c0,10.35,7.86,17.87,18.68,17.87c5.17,0,10.31-2.29,14.03-5.88l-0.16,2.43l-0.18,2.67h2.67h3.59
				h2.5v-2.5v-28.47C223.51,469.54,215.46,460.03,204.38,460.03L204.38,460.03z M192.01,483.52l0.3-0.72
				c1.43-3.44,6.35-5.94,11.71-5.94c5.34,0,9.54,2.18,10.64,5.34h-15.04C196.84,482.2,194.27,482.67,192.01,483.52L192.01,483.52z
				 M200.33,496.78c-4.26,0-7.57-1.73-7.57-3.21c0-1.61,2.79-2.82,6.49-2.82h15.6C213.91,494.91,206.98,496.78,200.33,496.78
				L200.33,496.78z"/>
		</g>
		<g>
			<path class="st12" d="M248.33,462.53c3.95,0,8.09,1.97,9.53,4.73l-0.18,14.19c-1.8-1.97-6.11-3.94-10.43-3.94
				c-6.83,0-12.31,4.73-12.67,11.03v22.56h-3.6v-47.78h3.6l-0.72,11.82h0.72C236.02,467.66,242.04,462.53,248.33,462.53
				 M248.33,460.03c-4.32,0-8.35,1.91-11.36,5.07l0.1-1.63l0.16-2.65h-2.66h-3.6h-2.5v2.5v47.78v2.5h2.5h3.6h2.5v-2.5v-22.48
				c0.32-4.91,4.68-8.61,10.17-8.61c3.91,0,7.43,1.87,8.58,3.13l4.27,4.67l0.08-6.33l0.18-14.19l0.01-0.63l-0.29-0.56
				C258.24,462.59,253.3,460.03,248.33,460.03L248.33,460.03z"/>
		</g>
	</g>
</g>
<g id="Camada_3">
	<g>
		<g>
			<g>
				<path class="st12" d="M674.91,53.94c-9.71,0-16.99,4.63-16.99,11.33c0,6.3,7.46,10.84,17.35,10.84c8.27,0,15.55-3.15,17.71-7.49
					h1.62c-0.36,12.22-8.18,21.28-18.79,21.28c-12.04,0-20.76-10.34-20.76-24.73c0-14.38,8.18-24.63,19.68-24.63
					c10.79,0,18.43,9.06,18.43,21.28h-1.62C689.38,57.09,682.82,53.94,674.91,53.94z"/>
			</g>
			<g>
				<path class="st12" d="M729.37,45.27l-0.18,14.19c-1.8-1.97-6.11-3.94-10.43-3.94c-6.83,0-12.31,4.73-12.67,11.03V89.1h-3.6
					V41.33h3.6l-0.72,11.82h0.72c1.44-7.49,7.46-12.61,13.75-12.61C723.8,40.54,727.94,42.51,729.37,45.27z"/>
			</g>
			<g>
				<path class="st12" d="M733.69,23.59c0-2.76,1.89-4.83,4.31-4.83c2.43,0,4.31,2.07,4.31,4.83c0,2.76-1.89,4.83-4.31,4.83
					C735.57,28.42,733.69,26.35,733.69,23.59z M736.2,89.1h3.6V41.33h-3.6V89.1z"/>
			</g>
			<g>
				<path class="st12" d="M783.84,60.63V89.1h-3.59l0.72-10.64h-0.72c-2.16,6.3-9.17,11.43-16.36,11.43
					c-9.35,0-16.18-6.3-16.18-15.37c0-7.09,6.47-11.82,14.74-11.82h17.8v-1.38c-0.36-5.12-5.84-8.96-13.39-8.96
					c-6.47,0-12.22,3.15-14.02,7.49h-1.62c0-11.03,6.47-19.31,16-19.31C776.92,40.54,783.84,48.81,783.84,60.63z M780.24,66.25
					h-18.16c-5.39,0-8.99,2.17-8.99,5.32c0,3.55,5.03,5.71,10.07,5.71c8.63,0,16.36-2.76,17.08-8.67V66.25z"/>
			</g>
		</g>
		<g>
			<g>
				<path class="st12" d="M674.91,191.6c-9.71,0-16.99,4.63-16.99,11.33c0,6.3,7.46,10.84,17.35,10.84c8.27,0,15.55-3.15,17.71-7.49
					h1.62c-0.36,12.22-8.18,21.28-18.79,21.28c-12.04,0-20.76-10.34-20.76-24.73c0-14.38,8.18-24.63,19.68-24.63
					c10.79,0,18.43,9.06,18.43,21.28h-1.62C689.38,194.75,682.82,191.6,674.91,191.6z"/>
			</g>
			<g>
				<path class="st12" d="M729.37,182.93l-0.18,14.19c-1.8-1.97-6.11-3.94-10.43-3.94c-6.83,0-12.31,4.73-12.67,11.03v22.56h-3.6
					v-47.78h3.6l-0.72,11.82h0.72c1.44-7.49,7.46-12.61,13.75-12.61C723.8,178.2,727.94,180.17,729.37,182.93z"/>
			</g>
			<g>
				<path class="st12" d="M733.69,161.25c0-2.76,1.89-4.83,4.31-4.83c2.43,0,4.31,2.07,4.31,4.83c0,2.76-1.89,4.83-4.31,4.83
					C735.57,166.08,733.69,164.01,733.69,161.25z M736.2,226.76h3.6v-47.78h-3.6V226.76z"/>
			</g>
			<g>
				<path class="st12" d="M783.84,198.29v28.47h-3.59l0.72-10.64h-0.72c-2.16,6.3-9.17,11.43-16.36,11.43
					c-9.35,0-16.18-6.3-16.18-15.37c0-7.09,6.47-11.82,14.74-11.82h17.8v-1.38c-0.36-5.12-5.84-8.96-13.39-8.96
					c-6.47,0-12.22,3.15-14.02,7.49h-1.62c0-11.03,6.47-19.31,16-19.31C776.92,178.2,783.84,186.47,783.84,198.29z M780.24,203.91
					h-18.16c-5.39,0-8.99,2.17-8.99,5.32c0,3.55,5.03,5.71,10.07,5.71c8.63,0,16.36-2.76,17.08-8.67V203.91z"/>
			</g>
		</g>
		<g>
			<g>
				<path class="st12" d="M674.91,604.58c-9.71,0-16.99,4.63-16.99,11.33c0,6.3,7.46,10.84,17.35,10.84
					c8.27,0,15.55-3.15,17.71-7.49h1.62c-0.36,12.22-8.18,21.28-18.79,21.28c-12.04,0-20.76-10.34-20.76-24.73
					c0-14.38,8.18-24.63,19.68-24.63c10.79,0,18.43,9.06,18.43,21.28h-1.62C689.38,607.73,682.82,604.58,674.91,604.58z"/>
			</g>
			<g>
				<path class="st12" d="M729.37,595.91l-0.18,14.19c-1.8-1.97-6.11-3.94-10.43-3.94c-6.83,0-12.31,4.73-12.67,11.03v22.56h-3.6
					v-47.78h3.6l-0.72,11.82h0.72c1.44-7.49,7.46-12.61,13.75-12.61C723.8,591.18,727.94,593.15,729.37,595.91z"/>
			</g>
			<g>
				<path class="st12" d="M733.69,574.23c0-2.76,1.89-4.83,4.31-4.83c2.43,0,4.31,2.07,4.31,4.83c0,2.76-1.89,4.83-4.31,4.83
					C735.57,579.06,733.69,576.99,733.69,574.23z M736.2,639.74h3.6v-47.78h-3.6V639.74z"/>
			</g>
			<g>
				<path class="st12" d="M783.84,611.27v28.47h-3.59l0.72-10.64h-0.72c-2.16,6.3-9.17,11.43-16.36,11.43
					c-9.35,0-16.18-6.3-16.18-15.37c0-7.09,6.47-11.82,14.74-11.82h17.8v-1.38c-0.36-5.12-5.84-8.96-13.39-8.96
					c-6.47,0-12.22,3.15-14.02,7.49h-1.62c0-11.03,6.47-19.31,16-19.31C776.92,591.18,783.84,599.45,783.84,611.27z M780.24,616.89
					h-18.16c-5.39,0-8.99,2.17-8.99,5.32c0,3.55,5.03,5.71,10.07,5.71c8.63,0,16.36-2.76,17.08-8.67V616.89z"/>
			</g>
		</g>
	</g>
	<g>
		<defs>
			<path id="SVGID_7_" d="M-20.12-48.61l1,776.22H1488l-29-776.22H-20.12z M862.27,717.76H576.61V-38.76h285.66V717.76z"/>
		</defs>
		<clipPath id="SVGID_2_">
			<use xlink:href="#SVGID_7_"  style="overflow:visible;"/>
		</clipPath>
		
			<line style="clip-path:url(#SVGID_2_);fill:none;stroke:#EFEFEF;stroke-width:8;stroke-miterlimit:10;" x1="279.68" y1="65.16" x2="1105.03" y2="65.16"/>
		
			<line style="clip-path:url(#SVGID_2_);fill:none;stroke:#EFEFEF;stroke-width:8;stroke-miterlimit:10;" x1="279.68" y1="340.98" x2="1105.03" y2="340.98"/>
		
			<line style="clip-path:url(#SVGID_2_);fill:none;stroke:#EFEFEF;stroke-width:8;stroke-miterlimit:10;" x1="279.68" y1="616.3" x2="1105.03" y2="616.3"/>
		
			<line style="clip-path:url(#SVGID_2_);fill:none;stroke:#EFEFEF;stroke-width:8;stroke-miterlimit:10;" x1="1105.03" y1="90.28" x2="279.68" y2="315.86"/>
		
			<line style="clip-path:url(#SVGID_2_);fill:none;stroke:#EFEFEF;stroke-width:8;stroke-miterlimit:10;" x1="1105.03" y1="366.1" x2="278.69" y2="590.69"/>
	</g>
</g>
</svg>
