<?xml version="1.0" encoding="utf-8"?>
<!-- Generator: Adobe Illustrator 24.1.2, SVG Export Plug-In . SVG Version: 6.00 Build 0)  -->
<svg version="1.1" xmlns="http://www.w3.org/2000/svg" xmlns:xlink="http://www.w3.org/1999/xlink" x="0px" y="0px"
	 viewBox="0 0 572.3 173.97" style="enable-background:new 0 0 572.3 173.97;" xml:space="preserve">
<style type="text/css">
	.st0{fill:url(#);}
	.st1{fill:#0000FF;}
	.st2{fill:#FF9FCF;}
	.st3{fill:none;stroke:#606060;stroke-width:10;stroke-linecap:square;stroke-miterlimit:10;}
	.st4{fill:none;stroke:#000000;stroke-width:10;stroke-miterlimit:10;}
	.st5{fill:#EFEFEF;}
	.st6{fill:none;stroke:#EFEFEF;stroke-width:15;stroke-miterlimit:10;}
	.st7{fill:#FBBA00;}
	.st8{fill:#DFDFDF;}
	.st9{fill:#FEFEFE;}
	.st10{fill:#F7BFD9;}
	.st11{clip-path:url(#SVGID_2_);fill:#00FF00;}
	.st12{fill:#FFED00;}
	.st13{fill:#00FF00;}
	.st14{fill:none;stroke:#0000FF;stroke-width:2;stroke-miterlimit:10;}
	.st15{fill:none;stroke:#00FF00;stroke-width:15;stroke-miterlimit:10;}
	.st16{fill:none;stroke:#EFEFEF;stroke-width:10;stroke-miterlimit:10;}
	.st17{fill:none;stroke:#FFED00;stroke-width:10;stroke-miterlimit:10;}
	.st18{fill:none;stroke:#EFEFEF;stroke-width:7;stroke-miterlimit:10;}
	.st19{fill:none;stroke:#EFEFEF;stroke-width:2;stroke-miterlimit:10;}
	.st20{fill:none;stroke:#00FF00;stroke-width:2;stroke-miterlimit:10;}
	.st21{fill:none;}
	.st22{fill:#FAFAFA;stroke:#0000FF;stroke-miterlimit:10;}
	.st23{fill:#FFFFFF;}
	.st24{fill:none;stroke:#000000;stroke-width:9;stroke-miterlimit:10;}
	.st25{display:none;}
	.st26{display:inline;}
	.st27{clip-path:url(#SVGID_4_);}
	.st28{fill:#FFFFFF;stroke:#000000;stroke-width:10;stroke-miterlimit:10;}
	.st29{display:inline;fill:#FFFFFF;}
</style>
<g id="Camada_2">
</g>
<g id="Camada_1">
	<g>
		<path class="st5" d="M116.78,64c-6.6-0.22-10.12,3.74-10.12,7.7c0,3.08,1.98,6.6,6.16,7.26l23.97,3.74
			c29.03,4.62,34.53,21.99,34.53,35.85c0,32.99-30.13,55.2-73.01,55.2C31.45,173.74,0,137.23,0,87.75C0,33.87,31.67,3.3,83.35,3.3
			h27.71c41.35,0,58.94,7.48,58.94,30.57c0,19.79-17.37,31.89-34.75,31.01L116.78,64z M132.83,133.93
			c16.05-0.22,24.63-8.36,24.63-17.15c0-13.42-10.78-19.13-29.25-15.4l-79.39,15.83c-8.14,1.54-13.2-1.1-14.51-5.28
			c-1.76-5.72,0.44-9.9,7.04-13.86l66.64-39.59c19.13-11.44,18.69-26.61,9.9-37.17C107.54,9.02,85.55,8.36,67.52,32.77l-44.65,60.7
			c-6.16,8.58-6.6,18.03-3.52,25.73c3.74,9.46,12.76,15.4,26.39,15.4L132.83,133.93z"/>
		<path class="st5" d="M199.26,36.29L224.11,7.7c4.62-5.28,11-7.7,17.37-7.7c11.22,0,21.99,7.7,21.99,20.89
			c0,12.32-7.48,18.03-18.03,21.77l-24.19,8.36c-2.86,0.88-4.18,2.86-4.18,5.06c0,3.74,3.74,3.74,5.72,3.52l14.96-1.76
			c22.21-2.64,29.69,16.05,15.17,32.77l-42.01,47.94c-3.52,3.96-4.62,5.72-4.62,7.92c0,4.4,3.74,8.14,7.92,6.38l26.39-11.44
			c9.24-3.96,20.01-2.64,21.33,10.12c1.54,14.73-16.05,22.21-32.99,22.21c-25.07,0-36.73-16.71-30.79-38.71l17.81-65.1
			c0.44-1.54,0.66-2.86,0.66-3.96c0-5.06-3.96-6.82-11-6.82h-9.46c-5.5,0-7.26-3.08-7.26-7.04
			C188.92,48.6,193.76,42.67,199.26,36.29z"/>
		<path class="st5" d="M328.57,0c12.54,0,26.61,8.36,26.61,25.07c0,5.72-1.76,12.54-5.94,20.45l-46.4,86.21
			c-3.74,6.82-6.38,12.76-6.38,17.15c0,5.72,4.84,9.46,8.58,9.46c4.62,0,11-4.84,22.21-13.42l20.23-15.61
			c8.36-6.38,16.05-9.02,22.65-9.02c14.52,0,24.19,12.54,24.19,25.07s-9.46,25.07-32.55,25.07h-43.77
			c-23.97,0-30.35-8.14-30.35-30.79c0-3.52,0.22-7.48,0.88-11.88l12.98-93.03C304.82,11.22,313.62,0,328.57,0z"/>
		<path class="st5" d="M455.25,26.61c-12.76-1.1-18.47,4.84-18.47,11c0,6.38,5.06,10.78,18.47,12.54l78.73,9.68
			c16.71,1.98,22.43,12.1,22.43,22.65c0,8.14-3.08,18.47-22.43,24.63l-85.77,27.27c-10.34,3.3-12.1,7.7-12.1,13.2
			c0,4.84,5.94,13.85,16.71,10.12l89.95-31.45c18.91-6.6,28.81-1.32,29.47,11.88c0.66,12.54-5.5,19.57-17.15,25.07
			c-12.75,5.94-45.74,11-75.21,10.78c-29.25,0-55.64-6.6-55.64-28.59c0-8.14,5.5-16.05,15.4-23.09l65.54-45.52
			c8.8-6.16,4.4-14.29-5.72-10.12l-43.99,18.03c-21.55,8.8-40.25-1.76-40.25-21.77c0-40.03,47.94-62.68,104.24-62.68
			c39.37,0,52.78,9.02,52.78,22.87c0,7.04-3.74,13.64-20.23,12.1L455.25,26.61z"/>
	</g>
</g>
<g id="Camada_3" class="st25">
</g>
</svg>
